<svg height="512" viewBox="0 0 128 128" width="512" xmlns="http://www.w3.org/2000/svg"><g id="Flat"><g id="Color"><rect fill="#d32f2f" height="79" rx="12" width="125" x="1.5" y="47.5"/><path d="m126.5 59.5v11h-125v-11a12 12 0 0 1 12-12h101a12 12 0 0 1 12 12z" fill="#37474f"/><circle cx="34" cy="98" fill="#eceff1" r="19.5"/><path d="m34 117.5a19.451 19.451 0 0 0 14.7-6.695 15.58 15.58 0 0 0 -29.4 0 19.451 19.451 0 0 0 14.7 6.695z" fill="#03a9f4"/><circle cx="34" cy="93.224" fill="#03a9f4" r="7.163"/><rect fill="#fff" height="7" rx="1.5" width="37" x="76.5" y="87"/><rect fill="#fff" height="7" rx="1.5" width="37" x="76.5" y="102"/><g fill="#ffc107"><path d="m118.132 2.7a3.516 3.516 0 0 0 -4.95 0l-5.657 5.657a3.5 3.5 0 0 0 4.95 4.949l5.657-5.657a3.515 3.515 0 0 0 0-4.949z"/><path d="m118.132 34.354-5.657-5.654a3.5 3.5 0 0 0 -4.95 4.949l5.657 5.657a3.5 3.5 0 1 0 4.95-4.949z"/><path d="m9.868 2.7a3.516 3.516 0 0 1 4.95 0l5.657 5.657a3.5 3.5 0 0 1 -4.95 4.949l-5.657-5.66a3.515 3.515 0 0 1 0-4.946z"/><path d="m9.868 34.354 5.657-5.654a3.5 3.5 0 0 1 4.95 4.949l-5.657 5.651a3.5 3.5 0 0 1 -4.95-4.949z"/><path d="m65.294 60.848 13.438 2.87a6.2 6.2 0 0 0 7.456-5.418l1.424-13.667a6.19 6.19 0 0 1 .8-2.461l6.881-11.893a6.2 6.2 0 0 0 -2.848-8.766l-12.558-5.577a6.2 6.2 0 0 1 -2.094-1.521l-9.185-10.215a6.194 6.194 0 0 0 -9.216 0l-9.185 10.22a6.2 6.2 0 0 1 -2.094 1.521l-12.558 5.572a6.2 6.2 0 0 0 -2.848 8.766l6.881 11.893a6.19 6.19 0 0 1 .8 2.461l1.424 13.667a6.2 6.2 0 0 0 7.456 5.418l13.438-2.87a6.2 6.2 0 0 1 2.588 0z"/></g><path d="m78.757 15.28-14.757 20.32v-33.456a6.143 6.143 0 0 1 4.606 2.056l9.194 10.212a5.473 5.473 0 0 0 .957.868z" fill="#ffa000"/><path d="m40.114 43.358 23.886-7.758-19.662 27.069a6.156 6.156 0 0 1 -2.53-4.368l-1.415-13.663a5.829 5.829 0 0 0 -.279-1.28z" fill="#ffa000"/><path d="m64 35.6-31.817-10.345a6.158 6.158 0 0 1 3.367-3.738l12.568-5.576a6.866 6.866 0 0 0 1.125-.661z" fill="#ffa000"/><path d="m83.662 62.669a6.125 6.125 0 0 1 -4.926 1.053l-13.445-2.871a6.021 6.021 0 0 0 -1.291-.134v-25.117z" fill="#ffa000"/><path d="m95.29 30.274-6.878 11.9a6.1 6.1 0 0 0 -.526 1.188l-23.886-7.762 31.817-10.334a6.141 6.141 0 0 1 -.527 5.008z" fill="#ffa000"/></g></g></svg>