<svg height="512" viewBox="0 0 512 512" width="512" xmlns="http://www.w3.org/2000/svg"><g id="_FLAT" data-name="/ FLAT"><path d="m56 144h352a32 32 0 0 1 32 32v280.00006a31.99994 31.99994 0 0 1 -31.99994 31.99994h-352.00006a32 32 0 0 1 -32-32v-280a32 32 0 0 1 32-32z" fill="#00659d"/><path d="m435.31372 75.31372-46.62744-46.62744a15.99933 15.99933 0 0 0 -11.31372-4.68628h-249.37256a16.00008 16.00008 0 0 0 -16 16v184h328v-137.37256a15.99967 15.99967 0 0 0 -4.68628-11.31372z" fill="#bdecdc"/><path d="m456 216h-336a32 32 0 0 0 -32 32v208a32.00012 32.00012 0 0 1 -31.99994 32h399.99994a32.00018 32.00018 0 0 0 32-32v-208a32 32 0 0 0 -32-32z" fill="#338dbf"/><g fill="#59cea7"><path d="m136 96h232v16h-232z"/><path d="m136 136h280v16h-280z"/><path d="m136 176h280v16h-280z"/><path d="m136 56h216v16h-216z"/></g><path d="m241.14014 307.88379-15.61335 26.02246a64.01224 64.01224 0 0 1 96.59089-68.06445l8.543-13.5293a79.98448 79.98448 0 0 0 -121.45536 81.4815l-21.08911-12.6543-8.23242 13.7207 46.86035 28.11524 28.11572-46.85938z" fill="#cbe2ef"/><path d="m396.11621 305.13965-46.86035-28.11524-28.11572 46.85938 13.71972 8.23242 15.61768-26.02978a64.01647 64.01647 0 0 1 -96.93311 67.85791l-8.62643 13.47466a80.01236 80.01236 0 0 0 123.082-67.419 80.76338 80.76338 0 0 0 -1.17114-13.77344l21.05493 12.63379z" fill="#cbe2ef"/><path d="m435.31372 75.31372-46.62744-46.62744a15.99933 15.99933 0 0 0 -11.31372-4.68628h-1.37256v40a16.00008 16.00008 0 0 0 16 16h46.54364a15.97424 15.97424 0 0 0 -3.22992-4.68628z" fill="#46c89d"/><path d="m431.682 80a192.06632 192.06632 0 0 1 -183.682 136h191.99982v-129.37256a15.97788 15.97788 0 0 0 -1.4563-6.62744z" fill="#a1c9bc"/><path d="m216.00024 488.15479h239.99976a32.00018 32.00018 0 0 0 32-32v-208a32.03988 32.03988 0 0 0 -1.05219-8.15479c-12.07981 139.05176-128.76269 248.15479-270.94757 248.15479z" fill="#2c78a3"/><path d="m416 152v-16h-12.06659a192.905 192.905 0 0 1 -12.84454 16z" fill="#4cb08e"/><path d="m341.009 192h74.991v-16h-50.711a192.23423 192.23423 0 0 1 -24.28 16z" fill="#4cb08e"/><rect fill="#00b378" height="32" rx="16" width="256" x="160" y="424"/><path d="m316.686 456h22.628l32-32h-22.628z" fill="#59cea7"/><path d="m268.686 456h22.628l32-32h-22.628z" fill="#59cea7"/><path d="m220.686 456h22.628l32-32h-22.628z" fill="#59cea7"/><path d="m172.97992 455.70605a16.02754 16.02754 0 0 0 3.02008.29395h19.314l32-32h-22.628z" fill="#59cea7"/><path d="m399.91382 424h-8.73782a272.49156 272.49156 0 0 1 -47.176 32h55.91382a16.00008 16.00008 0 0 0 16-16 16.00008 16.00008 0 0 0 -16-16z" fill="#096"/></g></svg>