<svg id="Layer_2" height="512" viewBox="0 0 512 512" width="512" xmlns="http://www.w3.org/2000/svg" data-name="Layer 2"><g id="Social_Icon" data-name="Social Icon"><g id="Users"><rect fill="#1e88e5" height="512" rx="150" width="512"/><g id="Users-2" fill="#fff" data-name="Users"><path d="m342.64 386.01-.05 30.13h-173.18l-.05-30.13c-.05-31.6 16.83-59.28 42.08-74.44 10.51 11.02 26.57 18.07 44.56 18.07s34.06-7.05 44.57-18.07c6.1 3.66 11.7 8.05 16.7 13.05 15.71 15.7 25.42 37.42 25.38 61.39z"/><circle cx="256" cy="256" r="48.71"/><path d="m446 274.58-.04 30.13h-135.15c11.52-12.95 18.52-30.01 18.52-48.71 0-20.06-8.06-38.24-21.12-51.48 2.12-1.57 4.33-3.03 6.59-4.39 10.51 11.02 26.56 18.06 44.56 18.06s34.07-7.04 44.57-18.06c6.1 3.66 11.7 8.05 16.7 13.05 15.71 15.7 25.41 37.42 25.38 61.39z"/><circle cx="359.36" cy="144.57" r="48.71"/><path d="m182.69 256c0 18.7 7 35.76 18.52 48.71h-135.16l-.05-30.13c-.04-31.6 16.83-59.27 42.07-74.44 10.51 11.02 26.57 18.06 44.57 18.06s34.06-7.04 44.57-18.06c2.26 1.36 4.46 2.82 6.58 4.39-13.05 13.24-21.11 31.42-21.11 51.48z"/><circle cx="152.64" cy="144.57" r="48.71"/></g></g></g></svg>